  0
SECTION
  2
HEADER
  9
$ANGBASE
  50
0.0
  9
$ANGDIR
  70
1
  9
$MEASUREMENT
  70
1
  9
$INSUNITS
  70
4
  0
ENDSEC
  0
SECTION
  2
TABLES
  0
TABLE
  2
LTYPE
  70
4
  0
LTYPE
  5
40F
  2
CONTINUOUS
  70
0
  3
Solid line
  72
65
  73
0
  40
0.0
  0
LTYPE
  5
410
  2
DASHDOT
 70
0
  3
Dash Dot ____ _ ____ _
 72
65
 73
4
 40
2.0
 49
1.25
 49
-0.25
 49
0.25
 49
-0.25
  0
LTYPE
  5
411
  2
DASHED
 70
0
  3
Dashed __ __ __ __ __
 72
65
 73
2
 40
0.75
 49
0.5
 49
-0.25
  0
LTYPE
  5
43B
  2
DOTTED
 70
0
  3
Dotted .  .  .  .
 72
65
 73
2
 40
0.2
 49
0.0
 49
-0.2
  0
ENDTAB
  0
TABLE
  2
STYLE
  70
4
  0
STYLE
  2
KICAD
  70
0
  40
0
  41
1
  42
1
  50
0
  71
0
  3
isocp.shx
  0
STYLE
  2
KICADB
  70
0
  40
0
  41
1
  42
1
  50
0
  71
0
  3
isocp.shx
  0
STYLE
  2
KICADI
  70
0
  40
0
  41
1
  42
1
  50
15
  71
0
  3
isocp.shx
  0
STYLE
  2
KICADBI
  70
0
  40
0
  41
1
  42
1
  50
15
  71
0
  3
isocp.shx
  0
ENDTAB
  0
TABLE
  2
LAYER
  70
1
  0
LAYER
  2
Edge.Cuts
  70
0
  62
254
  420
13685453
  6
CONTINUOUS
  0
ENDTAB
  0
ENDSEC
  0
SECTION
  2
ENTITIES
0
LINE
8
Edge.Cuts
6
CONTINUOUS
10
39.1059869999999989
20
-96.622990999999999
11
39.3111899999999963
21
-96.6896660000000026
0
LINE
8
Edge.Cuts
6
CONTINUOUS
10
39.3111899999999963
20
-96.6896660000000026
11
39.5034360000000007
21
-96.7876199999999898
0
LINE
8
Edge.Cuts
6
CONTINUOUS
10
39.5034360000000007
20
-96.7876199999999898
11
39.6779909999999987
21
-96.914441999999994
0
LINE
8
Edge.Cuts
6
CONTINUOUS
10
39.6779909999999987
20
-96.914441999999994
11
39.8305579999999964
21
-97.0670089999999988
0
LINE
8
Edge.Cuts
6
CONTINUOUS
10
39.8305579999999964
20
-97.0670089999999988
11
39.9573800000000006
21
-97.2415639999999968
0
LINE
8
Edge.Cuts
6
CONTINUOUS
10
39.9573800000000006
20
-97.2415639999999968
11
40.0553339999999949
21
-97.433809999999994
0
LINE
8
Edge.Cuts
6
CONTINUOUS
10
40.0553339999999949
20
-97.433809999999994
11
40.1220089999999985
21
-97.6390129999999914
0
LINE
8
Edge.Cuts
6
CONTINUOUS
10
40.1220089999999985
20
-97.6390129999999914
11
40.1557609999999983
21
-97.8521190000000018
0
LINE
8
Edge.Cuts
6
CONTINUOUS
10
40.1557609999999983
20
-97.8521190000000018
11
40.1557609999999983
21
-98.0678809999999999
0
LINE
8
Edge.Cuts
6
CONTINUOUS
10
40.1557609999999983
20
-98.0678809999999999
11
40.1220089999999985
21
-98.2809869999999961
0
LINE
8
Edge.Cuts
6
CONTINUOUS
10
40.1220089999999985
20
-98.2809869999999961
11
40.0553339999999949
21
-98.4861899999999935
0
LINE
8
Edge.Cuts
6
CONTINUOUS
10
40.0553339999999949
20
-98.4861899999999935
11
39.9573800000000006
21
-98.6784359999999907
0
LINE
8
Edge.Cuts
6
CONTINUOUS
10
39.9573800000000006
20
-98.6784359999999907
11
39.8305579999999964
21
-98.8529909999999887
0
LINE
8
Edge.Cuts
6
CONTINUOUS
10
39.8305579999999964
20
-98.8529909999999887
11
39.6779909999999987
21
-99.0055579999999935
0
LINE
8
Edge.Cuts
6
CONTINUOUS
10
39.6779909999999987
20
-99.0055579999999935
11
39.5034360000000007
21
-99.1323799999999977
0
LINE
8
Edge.Cuts
6
CONTINUOUS
10
39.5034360000000007
20
-99.1323799999999977
11
39.3111899999999963
21
-99.2303339999999992
0
LINE
8
Edge.Cuts
6
CONTINUOUS
10
39.3111899999999963
20
-99.2303339999999992
11
39.1059869999999989
21
-99.2970089999999885
0
LINE
8
Edge.Cuts
6
CONTINUOUS
10
39.1059869999999989
20
-99.2970089999999885
11
38.8928809999999956
21
-99.3307609999999954
0
LINE
8
Edge.Cuts
6
CONTINUOUS
10
38.8928809999999956
20
-99.3307609999999954
11
38.6771189999999976
21
-99.3307609999999954
0
LINE
8
Edge.Cuts
6
CONTINUOUS
10
38.6771189999999976
20
-99.3307609999999954
11
38.4640130000000013
21
-99.2970089999999885
0
LINE
8
Edge.Cuts
6
CONTINUOUS
10
38.4640130000000013
20
-99.2970089999999885
11
38.2588099999999969
21
-99.2303339999999992
0
LINE
8
Edge.Cuts
6
CONTINUOUS
10
38.2588099999999969
20
-99.2303339999999992
11
38.0665639999999996
21
-99.1323799999999977
0
LINE
8
Edge.Cuts
6
CONTINUOUS
10
38.0665639999999996
20
-99.1323799999999977
11
37.8920090000000016
21
-99.0055579999999935
0
LINE
8
Edge.Cuts
6
CONTINUOUS
10
37.8920090000000016
20
-99.0055579999999935
11
37.7394419999999968
21
-98.8529909999999887
0
LINE
8
Edge.Cuts
6
CONTINUOUS
10
37.7394419999999968
20
-98.8529909999999887
11
37.6126199999999997
21
-98.6784359999999907
0
LINE
8
Edge.Cuts
6
CONTINUOUS
10
37.6126199999999997
20
-98.6784359999999907
11
37.5146659999999983
21
-98.4861899999999935
0
LINE
8
Edge.Cuts
6
CONTINUOUS
10
37.5146659999999983
20
-98.4861899999999935
11
37.4479910000000018
21
-98.2809869999999961
0
LINE
8
Edge.Cuts
6
CONTINUOUS
10
37.4479910000000018
20
-98.2809869999999961
11
37.4142389999999949
21
-98.0678809999999999
0
LINE
8
Edge.Cuts
6
CONTINUOUS
10
37.4142389999999949
20
-98.0678809999999999
11
37.4142389999999949
21
-97.8557199999999909
0
LINE
8
Edge.Cuts
6
CONTINUOUS
10
37.4142389999999949
20
-97.8557199999999909
11
37.4142389999999949
21
-97.8521190000000018
0
LINE
8
Edge.Cuts
6
CONTINUOUS
10
37.4142389999999949
20
-97.8521190000000018
11
37.4479910000000018
21
-97.6390129999999914
0
LINE
8
Edge.Cuts
6
CONTINUOUS
10
37.4479910000000018
20
-97.6390129999999914
11
37.5146659999999983
21
-97.433809999999994
0
LINE
8
Edge.Cuts
6
CONTINUOUS
10
37.5146659999999983
20
-97.433809999999994
11
37.6126199999999997
21
-97.2415639999999968
0
LINE
8
Edge.Cuts
6
CONTINUOUS
10
37.6126199999999997
20
-97.2415639999999968
11
37.7394419999999968
21
-97.0670089999999988
0
LINE
8
Edge.Cuts
6
CONTINUOUS
10
37.7394419999999968
20
-97.0670089999999988
11
37.8920090000000016
21
-96.914441999999994
0
LINE
8
Edge.Cuts
6
CONTINUOUS
10
37.8920090000000016
20
-96.914441999999994
11
38.0665639999999996
21
-96.7876199999999898
0
LINE
8
Edge.Cuts
6
CONTINUOUS
10
38.0665639999999996
20
-96.7876199999999898
11
38.2588099999999969
21
-96.6896660000000026
0
LINE
8
Edge.Cuts
6
CONTINUOUS
10
38.2588099999999969
20
-96.6896660000000026
11
38.4640130000000013
21
-96.622990999999999
0
LINE
8
Edge.Cuts
6
CONTINUOUS
10
38.4640130000000013
20
-96.622990999999999
11
38.6771189999999976
21
-96.5892389999999921
0
LINE
8
Edge.Cuts
6
CONTINUOUS
10
38.6771189999999976
20
-96.5892389999999921
11
38.8928809999999956
21
-96.5892389999999921
0
LINE
8
Edge.Cuts
6
CONTINUOUS
10
38.8928809999999956
20
-96.5892389999999921
11
39.1059869999999989
21
-96.622990999999999
0
LINE
8
Edge.Cuts
6
CONTINUOUS
10
37.4600000000000009
20
-98.0642799999999966
11
37.4926260000000013
21
-98.2702719999999914
0
LINE
8
Edge.Cuts
6
CONTINUOUS
10
37.4926260000000013
20
-98.2702719999999914
11
37.5570740000000001
21
-98.4686229999999938
0
LINE
8
Edge.Cuts
6
CONTINUOUS
10
37.5570740000000001
20
-98.4686229999999938
11
37.6517589999999984
21
-98.6544509999999946
0
LINE
8
Edge.Cuts
6
CONTINUOUS
10
37.6517589999999984
20
-98.6544509999999946
11
37.7743469999999988
21
-98.8231789999999961
0
LINE
8
Edge.Cuts
6
CONTINUOUS
10
37.7743469999999988
20
-98.8231789999999961
11
37.9218210000000013
21
-98.9706529999999987
0
LINE
8
Edge.Cuts
6
CONTINUOUS
10
37.9218210000000013
20
-98.9706529999999987
11
38.0905489999999958
21
-99.0932409999999919
0
LINE
8
Edge.Cuts
6
CONTINUOUS
10
38.0905489999999958
20
-99.0932409999999919
11
38.2763769999999965
21
-99.1879259999999903
0
LINE
8
Edge.Cuts
6
CONTINUOUS
10
38.2763769999999965
20
-99.1879259999999903
11
38.4747279999999989
21
-99.252373999999989
0
LINE
8
Edge.Cuts
6
CONTINUOUS
10
38.4747279999999989
20
-99.252373999999989
11
38.6807200000000009
21
-99.2849999999999966
0
LINE
8
Edge.Cuts
6
CONTINUOUS
10
38.6807200000000009
20
-99.2849999999999966
11
38.8892799999999994
21
-99.2849999999999966
0
LINE
8
Edge.Cuts
6
CONTINUOUS
10
38.8892799999999994
20
-99.2849999999999966
11
39.0952720000000014
21
-99.252373999999989
0
LINE
8
Edge.Cuts
6
CONTINUOUS
10
39.0952720000000014
20
-99.252373999999989
11
39.2936229999999966
21
-99.1879259999999903
0
LINE
8
Edge.Cuts
6
CONTINUOUS
10
39.2936229999999966
20
-99.1879259999999903
11
39.4794509999999974
21
-99.0932409999999919
0
LINE
8
Edge.Cuts
6
CONTINUOUS
10
39.4794509999999974
20
-99.0932409999999919
11
39.648178999999999
21
-98.9706529999999987
0
LINE
8
Edge.Cuts
6
CONTINUOUS
10
39.648178999999999
20
-98.9706529999999987
11
39.7956530000000015
21
-98.8231789999999961
0
LINE
8
Edge.Cuts
6
CONTINUOUS
10
39.7956530000000015
20
-98.8231789999999961
11
39.9182409999999948
21
-98.6544509999999946
0
LINE
8
Edge.Cuts
6
CONTINUOUS
10
39.9182409999999948
20
-98.6544509999999946
11
40.0129260000000002
21
-98.4686229999999938
0
LINE
8
Edge.Cuts
6
CONTINUOUS
10
40.0129260000000002
20
-98.4686229999999938
11
40.0773739999999989
21
-98.2702719999999914
0
LINE
8
Edge.Cuts
6
CONTINUOUS
10
40.0773739999999989
20
-98.2702719999999914
11
40.1099999999999994
21
-98.0642799999999966
0
LINE
8
Edge.Cuts
6
CONTINUOUS
10
40.1099999999999994
20
-98.0642799999999966
11
40.1099999999999994
21
-97.8557199999999909
0
LINE
8
Edge.Cuts
6
CONTINUOUS
10
40.1099999999999994
20
-97.8557199999999909
11
40.0773739999999989
21
-97.6497279999999961
0
LINE
8
Edge.Cuts
6
CONTINUOUS
10
40.0773739999999989
20
-97.6497279999999961
11
40.0129260000000002
21
-97.4513769999999937
0
LINE
8
Edge.Cuts
6
CONTINUOUS
10
40.0129260000000002
20
-97.4513769999999937
11
39.9182409999999948
21
-97.2655489999999929
0
LINE
8
Edge.Cuts
6
CONTINUOUS
10
39.9182409999999948
20
-97.2655489999999929
11
39.7956530000000015
21
-97.0968209999999914
0
LINE
8
Edge.Cuts
6
CONTINUOUS
10
39.7956530000000015
20
-97.0968209999999914
11
39.648178999999999
21
-96.9493469999999888
0
LINE
8
Edge.Cuts
6
CONTINUOUS
10
39.648178999999999
20
-96.9493469999999888
11
39.4794509999999974
21
-96.8267589999999956
0
LINE
8
Edge.Cuts
6
CONTINUOUS
10
39.4794509999999974
20
-96.8267589999999956
11
39.2936229999999966
21
-96.7320739999999972
0
LINE
8
Edge.Cuts
6
CONTINUOUS
10
39.2936229999999966
20
-96.7320739999999972
11
39.0952720000000014
21
-96.6676259999999985
0
LINE
8
Edge.Cuts
6
CONTINUOUS
10
39.0952720000000014
20
-96.6676259999999985
11
38.8892799999999994
21
-96.6349999999999909
0
LINE
8
Edge.Cuts
6
CONTINUOUS
10
38.8892799999999994
20
-96.6349999999999909
11
38.6807200000000009
21
-96.6349999999999909
0
LINE
8
Edge.Cuts
6
CONTINUOUS
10
38.6807200000000009
20
-96.6349999999999909
11
38.4747279999999989
21
-96.6676259999999985
0
LINE
8
Edge.Cuts
6
CONTINUOUS
10
38.4747279999999989
20
-96.6676259999999985
11
38.2763769999999965
21
-96.7320739999999972
0
LINE
8
Edge.Cuts
6
CONTINUOUS
10
38.2763769999999965
20
-96.7320739999999972
11
38.0905489999999958
21
-96.8267589999999956
0
LINE
8
Edge.Cuts
6
CONTINUOUS
10
38.0905489999999958
20
-96.8267589999999956
11
37.9218210000000013
21
-96.9493469999999888
0
LINE
8
Edge.Cuts
6
CONTINUOUS
10
37.9218210000000013
20
-96.9493469999999888
11
37.7743469999999988
21
-97.0968209999999914
0
LINE
8
Edge.Cuts
6
CONTINUOUS
10
37.7743469999999988
20
-97.0968209999999914
11
37.6517589999999984
21
-97.2655489999999929
0
LINE
8
Edge.Cuts
6
CONTINUOUS
10
37.6517589999999984
20
-97.2655489999999929
11
37.5570740000000001
21
-97.4513769999999937
0
LINE
8
Edge.Cuts
6
CONTINUOUS
10
37.5570740000000001
20
-97.4513769999999937
11
37.4926260000000013
21
-97.6497279999999961
0
LINE
8
Edge.Cuts
6
CONTINUOUS
10
37.4926260000000013
20
-97.6497279999999961
11
37.4600000000000009
21
-97.8557199999999909
0
LINE
8
Edge.Cuts
6
CONTINUOUS
10
37.4600000000000009
20
-97.8557199999999909
11
37.4600000000000009
21
-98.0642799999999966
0
LINE
8
Edge.Cuts
6
CONTINUOUS
10
39.1059869999999989
20
-29.3129910000000002
11
39.3111899999999963
21
-29.3796660000000003
0
LINE
8
Edge.Cuts
6
CONTINUOUS
10
39.3111899999999963
20
-29.3796660000000003
11
39.5034360000000007
21
-29.4776199999999982
0
LINE
8
Edge.Cuts
6
CONTINUOUS
10
39.5034360000000007
20
-29.4776199999999982
11
39.6779909999999987
21
-29.6044419999999988
0
LINE
8
Edge.Cuts
6
CONTINUOUS
10
39.6779909999999987
20
-29.6044419999999988
11
39.8305579999999964
21
-29.757009
0
LINE
8
Edge.Cuts
6
CONTINUOUS
10
39.8305579999999964
20
-29.757009
11
39.9573800000000006
21
-29.9315639999999981
0
LINE
8
Edge.Cuts
6
CONTINUOUS
10
39.9573800000000006
20
-29.9315639999999981
11
40.0553339999999949
21
-30.1238099999999989
0
LINE
8
Edge.Cuts
6
CONTINUOUS
10
40.0553339999999949
20
-30.1238099999999989
11
40.1220089999999985
21
-30.3290129999999998
0
LINE
8
Edge.Cuts
6
CONTINUOUS
10
40.1220089999999985
20
-30.3290129999999998
11
40.1557609999999983
21
-30.5421189999999996
0
LINE
8
Edge.Cuts
6
CONTINUOUS
10
40.1557609999999983
20
-30.5421189999999996
11
40.1557609999999983
21
-30.7578809999999976
0
LINE
8
Edge.Cuts
6
CONTINUOUS
10
40.1557609999999983
20
-30.7578809999999976
11
40.1220089999999985
21
-30.9709869999999974
0
LINE
8
Edge.Cuts
6
CONTINUOUS
10
40.1220089999999985
20
-30.9709869999999974
11
40.0553339999999949
21
-31.1761899999999983
0
LINE
8
Edge.Cuts
6
CONTINUOUS
10
40.0553339999999949
20
-31.1761899999999983
11
39.9573800000000006
21
-31.3684359999999991
0
LINE
8
Edge.Cuts
6
CONTINUOUS
10
39.9573800000000006
20
-31.3684359999999991
11
39.8305579999999964
21
-31.5429909999999971
0
LINE
8
Edge.Cuts
6
CONTINUOUS
10
39.8305579999999964
20
-31.5429909999999971
11
39.6779909999999987
21
-31.6955579999999983
0
LINE
8
Edge.Cuts
6
CONTINUOUS
10
39.6779909999999987
20
-31.6955579999999983
11
39.5034360000000007
21
-31.822379999999999
0
LINE
8
Edge.Cuts
6
CONTINUOUS
10
39.5034360000000007
20
-31.822379999999999
11
39.3111899999999963
21
-31.9203339999999969
0
LINE
8
Edge.Cuts
6
CONTINUOUS
10
39.3111899999999963
20
-31.9203339999999969
11
39.1059869999999989
21
-31.9870089999999969
0
LINE
8
Edge.Cuts
6
CONTINUOUS
10
39.1059869999999989
20
-31.9870089999999969
11
38.8928809999999956
21
-32.0207610000000003
0
LINE
8
Edge.Cuts
6
CONTINUOUS
10
38.8928809999999956
20
-32.0207610000000003
11
38.6771189999999976
21
-32.0207610000000003
0
LINE
8
Edge.Cuts
6
CONTINUOUS
10
38.6771189999999976
20
-32.0207610000000003
11
38.4640130000000013
21
-31.9870089999999969
0
LINE
8
Edge.Cuts
6
CONTINUOUS
10
38.4640130000000013
20
-31.9870089999999969
11
38.2588099999999969
21
-31.9203339999999969
0
LINE
8
Edge.Cuts
6
CONTINUOUS
10
38.2588099999999969
20
-31.9203339999999969
11
38.0665639999999996
21
-31.822379999999999
0
LINE
8
Edge.Cuts
6
CONTINUOUS
10
38.0665639999999996
20
-31.822379999999999
11
37.8920090000000016
21
-31.6955579999999983
0
LINE
8
Edge.Cuts
6
CONTINUOUS
10
37.8920090000000016
20
-31.6955579999999983
11
37.7394419999999968
21
-31.5429909999999971
0
LINE
8
Edge.Cuts
6
CONTINUOUS
10
37.7394419999999968
20
-31.5429909999999971
11
37.6126199999999997
21
-31.3684359999999991
0
LINE
8
Edge.Cuts
6
CONTINUOUS
10
37.6126199999999997
20
-31.3684359999999991
11
37.5146659999999983
21
-31.1761899999999983
0
LINE
8
Edge.Cuts
6
CONTINUOUS
10
37.5146659999999983
20
-31.1761899999999983
11
37.4479910000000018
21
-30.9709869999999974
0
LINE
8
Edge.Cuts
6
CONTINUOUS
10
37.4479910000000018
20
-30.9709869999999974
11
37.4142389999999949
21
-30.7578809999999976
0
LINE
8
Edge.Cuts
6
CONTINUOUS
10
37.4142389999999949
20
-30.7578809999999976
11
37.4142389999999949
21
-30.5457199999999993
0
LINE
8
Edge.Cuts
6
CONTINUOUS
10
37.4142389999999949
20
-30.5457199999999993
11
37.4142389999999949
21
-30.5421189999999996
0
LINE
8
Edge.Cuts
6
CONTINUOUS
10
37.4142389999999949
20
-30.5421189999999996
11
37.4479910000000018
21
-30.3290129999999998
0
LINE
8
Edge.Cuts
6
CONTINUOUS
10
37.4479910000000018
20
-30.3290129999999998
11
37.5146659999999983
21
-30.1238099999999989
0
LINE
8
Edge.Cuts
6
CONTINUOUS
10
37.5146659999999983
20
-30.1238099999999989
11
37.6126199999999997
21
-29.9315639999999981
0
LINE
8
Edge.Cuts
6
CONTINUOUS
10
37.6126199999999997
20
-29.9315639999999981
11
37.7394419999999968
21
-29.757009
0
LINE
8
Edge.Cuts
6
CONTINUOUS
10
37.7394419999999968
20
-29.757009
11
37.8920090000000016
21
-29.6044419999999988
0
LINE
8
Edge.Cuts
6
CONTINUOUS
10
37.8920090000000016
20
-29.6044419999999988
11
38.0665639999999996
21
-29.4776199999999982
0
LINE
8
Edge.Cuts
6
CONTINUOUS
10
38.0665639999999996
20
-29.4776199999999982
11
38.2588099999999969
21
-29.3796660000000003
0
LINE
8
Edge.Cuts
6
CONTINUOUS
10
38.2588099999999969
20
-29.3796660000000003
11
38.4640130000000013
21
-29.3129910000000002
0
LINE
8
Edge.Cuts
6
CONTINUOUS
10
38.4640130000000013
20
-29.3129910000000002
11
38.6771189999999976
21
-29.2792389999999969
0
LINE
8
Edge.Cuts
6
CONTINUOUS
10
38.6771189999999976
20
-29.2792389999999969
11
38.8928809999999956
21
-29.2792389999999969
0
LINE
8
Edge.Cuts
6
CONTINUOUS
10
38.8928809999999956
20
-29.2792389999999969
11
39.1059869999999989
21
-29.3129910000000002
0
LINE
8
Edge.Cuts
6
CONTINUOUS
10
37.4600000000000009
20
-30.7542799999999978
11
37.4926260000000013
21
-30.9602719999999998
0
LINE
8
Edge.Cuts
6
CONTINUOUS
10
37.4926260000000013
20
-30.9602719999999998
11
37.5570740000000001
21
-31.1586229999999986
0
LINE
8
Edge.Cuts
6
CONTINUOUS
10
37.5570740000000001
20
-31.1586229999999986
11
37.6517589999999984
21
-31.3444509999999994
0
LINE
8
Edge.Cuts
6
CONTINUOUS
10
37.6517589999999984
20
-31.3444509999999994
11
37.7743469999999988
21
-31.5131789999999974
0
LINE
8
Edge.Cuts
6
CONTINUOUS
10
37.7743469999999988
20
-31.5131789999999974
11
37.9218210000000013
21
-31.6606529999999999
0
LINE
8
Edge.Cuts
6
CONTINUOUS
10
37.9218210000000013
20
-31.6606529999999999
11
38.0905489999999958
21
-31.7832410000000003
0
LINE
8
Edge.Cuts
6
CONTINUOUS
10
38.0905489999999958
20
-31.7832410000000003
11
38.2763769999999965
21
-31.8779259999999987
0
LINE
8
Edge.Cuts
6
CONTINUOUS
10
38.2763769999999965
20
-31.8779259999999987
11
38.4747279999999989
21
-31.9423739999999974
0
LINE
8
Edge.Cuts
6
CONTINUOUS
10
38.4747279999999989
20
-31.9423739999999974
11
38.6807200000000009
21
-31.9749999999999979
0
LINE
8
Edge.Cuts
6
CONTINUOUS
10
38.6807200000000009
20
-31.9749999999999979
11
38.8892799999999994
21
-31.9749999999999979
0
LINE
8
Edge.Cuts
6
CONTINUOUS
10
38.8892799999999994
20
-31.9749999999999979
11
39.0952720000000014
21
-31.9423739999999974
0
LINE
8
Edge.Cuts
6
CONTINUOUS
10
39.0952720000000014
20
-31.9423739999999974
11
39.2936229999999966
21
-31.8779259999999987
0
LINE
8
Edge.Cuts
6
CONTINUOUS
10
39.2936229999999966
20
-31.8779259999999987
11
39.4794509999999974
21
-31.7832410000000003
0
LINE
8
Edge.Cuts
6
CONTINUOUS
10
39.4794509999999974
20
-31.7832410000000003
11
39.648178999999999
21
-31.6606529999999999
0
LINE
8
Edge.Cuts
6
CONTINUOUS
10
39.648178999999999
20
-31.6606529999999999
11
39.7956530000000015
21
-31.5131789999999974
0
LINE
8
Edge.Cuts
6
CONTINUOUS
10
39.7956530000000015
20
-31.5131789999999974
11
39.9182409999999948
21
-31.3444509999999994
0
LINE
8
Edge.Cuts
6
CONTINUOUS
10
39.9182409999999948
20
-31.3444509999999994
11
40.0129260000000002
21
-31.1586229999999986
0
LINE
8
Edge.Cuts
6
CONTINUOUS
10
40.0129260000000002
20
-31.1586229999999986
11
40.0773739999999989
21
-30.9602719999999998
0
LINE
8
Edge.Cuts
6
CONTINUOUS
10
40.0773739999999989
20
-30.9602719999999998
11
40.1099999999999994
21
-30.7542799999999978
0
LINE
8
Edge.Cuts
6
CONTINUOUS
10
40.1099999999999994
20
-30.7542799999999978
11
40.1099999999999994
21
-30.5457199999999993
0
LINE
8
Edge.Cuts
6
CONTINUOUS
10
40.1099999999999994
20
-30.5457199999999993
11
40.0773739999999989
21
-30.3397279999999974
0
LINE
8
Edge.Cuts
6
CONTINUOUS
10
40.0773739999999989
20
-30.3397279999999974
11
40.0129260000000002
21
-30.1413769999999985
0
LINE
8
Edge.Cuts
6
CONTINUOUS
10
40.0129260000000002
20
-30.1413769999999985
11
39.9182409999999948
21
-29.9555489999999978
0
LINE
8
Edge.Cuts
6
CONTINUOUS
10
39.9182409999999948
20
-29.9555489999999978
11
39.7956530000000015
21
-29.7868209999999998
0
LINE
8
Edge.Cuts
6
CONTINUOUS
10
39.7956530000000015
20
-29.7868209999999998
11
39.648178999999999
21
-29.6393469999999972
0
LINE
8
Edge.Cuts
6
CONTINUOUS
10
39.648178999999999
20
-29.6393469999999972
11
39.4794509999999974
21
-29.5167590000000004
0
LINE
8
Edge.Cuts
6
CONTINUOUS
10
39.4794509999999974
20
-29.5167590000000004
11
39.2936229999999966
21
-29.4220739999999985
0
LINE
8
Edge.Cuts
6
CONTINUOUS
10
39.2936229999999966
20
-29.4220739999999985
11
39.0952720000000014
21
-29.3576259999999998
0
LINE
8
Edge.Cuts
6
CONTINUOUS
10
39.0952720000000014
20
-29.3576259999999998
11
38.8892799999999994
21
-29.3249999999999993
0
LINE
8
Edge.Cuts
6
CONTINUOUS
10
38.8892799999999994
20
-29.3249999999999993
11
38.6807200000000009
21
-29.3249999999999993
0
LINE
8
Edge.Cuts
6
CONTINUOUS
10
38.6807200000000009
20
-29.3249999999999993
11
38.4747279999999989
21
-29.3576259999999998
0
LINE
8
Edge.Cuts
6
CONTINUOUS
10
38.4747279999999989
20
-29.3576259999999998
11
38.2763769999999965
21
-29.4220739999999985
0
LINE
8
Edge.Cuts
6
CONTINUOUS
10
38.2763769999999965
20
-29.4220739999999985
11
38.0905489999999958
21
-29.5167590000000004
0
LINE
8
Edge.Cuts
6
CONTINUOUS
10
38.0905489999999958
20
-29.5167590000000004
11
37.9218210000000013
21
-29.6393469999999972
0
LINE
8
Edge.Cuts
6
CONTINUOUS
10
37.9218210000000013
20
-29.6393469999999972
11
37.7743469999999988
21
-29.7868209999999998
0
LINE
8
Edge.Cuts
6
CONTINUOUS
10
37.7743469999999988
20
-29.7868209999999998
11
37.6517589999999984
21
-29.9555489999999978
0
LINE
8
Edge.Cuts
6
CONTINUOUS
10
37.6517589999999984
20
-29.9555489999999978
11
37.5570740000000001
21
-30.1413769999999985
0
LINE
8
Edge.Cuts
6
CONTINUOUS
10
37.5570740000000001
20
-30.1413769999999985
11
37.4926260000000013
21
-30.3397279999999974
0
LINE
8
Edge.Cuts
6
CONTINUOUS
10
37.4926260000000013
20
-30.3397279999999974
11
37.4600000000000009
21
-30.5457199999999993
0
LINE
8
Edge.Cuts
6
CONTINUOUS
10
37.4600000000000009
20
-30.5457199999999993
11
37.4600000000000009
21
-30.7542799999999978
0
LINE
8
Edge.Cuts
6
CONTINUOUS
10
99.
20
0.025
11
99.1779889999999966
21
0.009428
0
LINE
8
Edge.Cuts
6
CONTINUOUS
10
99.1779889999999966
20
0.009428
11
99.3505710000000022
21
-0.036815
0
LINE
8
Edge.Cuts
6
CONTINUOUS
10
99.3505710000000022
20
-0.036815
11
99.5124999999999886
21
-0.112324
0
LINE
8
Edge.Cuts
6
CONTINUOUS
10
99.5124999999999886
20
-0.112324
11
99.6588579999999951
21
-0.214804
0
LINE
8
Edge.Cuts
6
CONTINUOUS
10
99.6588579999999951
20
-0.214804
11
99.7851959999999991
21
-0.341142
0
LINE
8
Edge.Cuts
6
CONTINUOUS
10
99.7851959999999991
20
-0.341142
11
99.887675999999999
21
-0.4875
0
LINE
8
Edge.Cuts
6
CONTINUOUS
10
99.887675999999999
20
-0.4875
11
99.9631849999999957
21
-0.6494289999999999
0
LINE
8
Edge.Cuts
6
CONTINUOUS
10
99.9631849999999957
20
-0.6494289999999999
11
100.0094279999999998
21
-0.8220109999999999
0
LINE
8
Edge.Cuts
6
CONTINUOUS
10
100.0094279999999998
20
-0.8220109999999999
11
100.0249999999999915
21
-1.
0
LINE
8
Edge.Cuts
6
CONTINUOUS
10
100.0249999999999915
20
-1.
11
100.023775999999998
21
-1.0037659999999999
0
LINE
8
Edge.Cuts
6
CONTINUOUS
10
100.023775999999998
20
-1.0037659999999999
11
100.023775999999998
21
-1.007725
0
LINE
8
Edge.Cuts
6
CONTINUOUS
10
100.023775999999998
20
-1.007725
11
100.0214489999999898
21
-1.010928
0
LINE
8
Edge.Cuts
6
CONTINUOUS
10
100.0214489999999898
20
-1.010928
11
100.0202249999999964
21
-1.0146949999999999
0
LINE
8
Edge.Cuts
6
CONTINUOUS
10
100.0202249999999964
20
-1.0146949999999999
11
100.0170209999999997
21
-1.017021
0
LINE
8
Edge.Cuts
6
CONTINUOUS
10
100.0170209999999997
20
-1.017021
11
100.014694999999989
21
-1.0202249999999999
0
LINE
8
Edge.Cuts
6
CONTINUOUS
10
100.014694999999989
20
-1.0202249999999999
11
100.0109279999999927
21
-1.0214490000000001
0
LINE
8
Edge.Cuts
6
CONTINUOUS
10
100.0109279999999927
20
-1.0214490000000001
11
100.0077249999999935
21
-1.023776
0
LINE
8
Edge.Cuts
6
CONTINUOUS
10
100.0077249999999935
20
-1.023776
11
100.0037669999999963
21
-1.023776
0
LINE
8
Edge.Cuts
6
CONTINUOUS
10
100.0037669999999963
20
-1.023776
11
100.
21
-1.0249999999999999
0
LINE
8
Edge.Cuts
6
CONTINUOUS
10
100.
20
-1.0249999999999999
11
99.8902069999999895
21
-1.0249999999999999
0
LINE
8
Edge.Cuts
6
CONTINUOUS
10
99.8902069999999895
20
-1.0249999999999999
11
99.673616999999993
21
-1.0611429999999999
0
LINE
8
Edge.Cuts
6
CONTINUOUS
10
99.673616999999993
20
-1.0611429999999999
11
99.4659289999999885
21
-1.1324419999999999
0
LINE
8
Edge.Cuts
6
CONTINUOUS
10
99.4659289999999885
20
-1.1324419999999999
11
99.2728099999999927
21
-1.236953
0
LINE
8
Edge.Cuts
6
CONTINUOUS
10
99.2728099999999927
20
-1.236953
11
99.0995259999999973
21
-1.3718249999999999
0
LINE
8
Edge.Cuts
6
CONTINUOUS
10
99.0995259999999973
20
-1.3718249999999999
11
98.9508050000000026
21
-1.5333789999999998
0
LINE
8
Edge.Cuts
6
CONTINUOUS
10
98.9508050000000026
20
-1.5333789999999998
11
98.8307039999999972
21
-1.7172079999999998
0
LINE
8
Edge.Cuts
6
CONTINUOUS
10
98.8307039999999972
20
-1.7172079999999998
11
98.7424970000000002
21
-1.918299
0
LINE
8
Edge.Cuts
6
CONTINUOUS
10
98.7424970000000002
20
-1.918299
11
98.6885919999999999
21
-2.1311649999999998
0
LINE
8
Edge.Cuts
6
CONTINUOUS
10
98.6885919999999999
20
-2.1311649999999998
11
98.6704589999999939
21
-2.3500000000000001
0
LINE
8
Edge.Cuts
6
CONTINUOUS
10
98.6704589999999939
20
-2.3500000000000001
11
98.6885919999999999
21
-2.568835
0
LINE
8
Edge.Cuts
6
CONTINUOUS
10
98.6885919999999999
20
-2.568835
11
98.7424970000000002
21
-2.781701
0
LINE
8
Edge.Cuts
6
CONTINUOUS
10
98.7424970000000002
20
-2.781701
11
98.8307039999999972
21
-2.9827919999999999
0
LINE
8
Edge.Cuts
6
CONTINUOUS
10
98.8307039999999972
20
-2.9827919999999999
11
98.9508050000000026
21
-3.1666209999999997
0
LINE
8
Edge.Cuts
6
CONTINUOUS
10
98.9508050000000026
20
-3.1666209999999997
11
99.0995259999999973
21
-3.3281749999999999
0
LINE
8
Edge.Cuts
6
CONTINUOUS
10
99.0995259999999973
20
-3.3281749999999999
11
99.2728099999999927
21
-3.463047
0
LINE
8
Edge.Cuts
6
CONTINUOUS
10
99.2728099999999927
20
-3.463047
11
99.4659289999999885
21
-3.567558
0
LINE
8
Edge.Cuts
6
CONTINUOUS
10
99.4659289999999885
20
-3.567558
11
99.673616999999993
21
-3.6388569999999998
0
LINE
8
Edge.Cuts
6
CONTINUOUS
10
99.673616999999993
20
-3.6388569999999998
11
99.8902069999999895
21
-3.6749999999999998
0
LINE
8
Edge.Cuts
6
CONTINUOUS
10
99.8902069999999895
20
-3.6749999999999998
11
100.
21
-3.6749999999999998
0
LINE
8
Edge.Cuts
6
CONTINUOUS
10
100.
20
-3.6749999999999998
11
100.0058559999999943
21
-3.6769029999999998
0
LINE
8
Edge.Cuts
6
CONTINUOUS
10
100.0058559999999943
20
-3.6769029999999998
11
100.0095669999999899
21
-3.6769029999999998
0
LINE
8
Edge.Cuts
6
CONTINUOUS
10
100.0095669999999899
20
-3.6769029999999998
11
100.0113529999999997
21
-3.6786889999999999
0
LINE
8
Edge.Cuts
6
CONTINUOUS
10
100.0113529999999997
20
-3.6786889999999999
11
100.014694999999989
21
-3.6797749999999998
0
LINE
8
Edge.Cuts
6
CONTINUOUS
10
100.014694999999989
20
-3.6797749999999998
11
100.0206869999999952
21
-3.6880229999999998
0
LINE
8
Edge.Cuts
6
CONTINUOUS
10
100.0206869999999952
20
-3.6880229999999998
11
100.0230969999999928
21
-3.6904329999999996
0
LINE
8
Edge.Cuts
6
CONTINUOUS
10
100.0230969999999928
20
-3.6904329999999996
11
100.023344999999992
21
-3.6916819999999997
0
LINE
8
Edge.Cuts
6
CONTINUOUS
10
100.023344999999992
20
-3.6916819999999997
11
100.023775999999998
21
-3.692275
0
LINE
8
Edge.Cuts
6
CONTINUOUS
10
100.023775999999998
20
-3.692275
11
100.023775999999998
21
-3.6938459999999997
0
LINE
8
Edge.Cuts
6
CONTINUOUS
10
100.023775999999998
20
-3.6938459999999997
11
100.0249999999999915
21
-3.6999999999999997
0
LINE
8
Edge.Cuts
6
CONTINUOUS
10
100.0249999999999915
20
-3.6999999999999997
11
100.0249999999999915
21
-96.2999999999999972
0
LINE
8
Edge.Cuts
6
CONTINUOUS
10
100.0249999999999915
20
-96.2999999999999972
11
100.023775999999998
21
-96.3061529999999948
0
LINE
8
Edge.Cuts
6
CONTINUOUS
10
100.023775999999998
20
-96.3061529999999948
11
100.023775999999998
21
-96.3077249999999907
0
LINE
8
Edge.Cuts
6
CONTINUOUS
10
100.023775999999998
20
-96.3077249999999907
11
100.023344999999992
21
-96.3083170000000024
0
LINE
8
Edge.Cuts
6
CONTINUOUS
10
100.023344999999992
20
-96.3083170000000024
11
100.0230969999999928
21
-96.3095670000000013
0
LINE
8
Edge.Cuts
6
CONTINUOUS
10
100.0230969999999928
20
-96.3095670000000013
11
100.0206869999999952
21
-96.3119760000000014
0
LINE
8
Edge.Cuts
6
CONTINUOUS
10
100.0206869999999952
20
-96.3119760000000014
11
100.014694999999989
21
-96.3202249999999935
0
LINE
8
Edge.Cuts
6
CONTINUOUS
10
100.014694999999989
20
-96.3202249999999935
11
100.0113529999999997
21
-96.3213099999999969
0
LINE
8
Edge.Cuts
6
CONTINUOUS
10
100.0113529999999997
20
-96.3213099999999969
11
100.0095669999999899
21
-96.32309699999999
0
LINE
8
Edge.Cuts
6
CONTINUOUS
10
100.0095669999999899
20
-96.32309699999999
11
100.0058559999999943
21
-96.32309699999999
0
LINE
8
Edge.Cuts
6
CONTINUOUS
10
100.0058559999999943
20
-96.32309699999999
11
100.
21
-96.3249999999999886
0
LINE
8
Edge.Cuts
6
CONTINUOUS
10
100.
20
-96.3249999999999886
11
99.8902069999999895
21
-96.3249999999999886
0
LINE
8
Edge.Cuts
6
CONTINUOUS
10
99.8902069999999895
20
-96.3249999999999886
11
99.673616999999993
21
-96.3611429999999984
0
LINE
8
Edge.Cuts
6
CONTINUOUS
10
99.673616999999993
20
-96.3611429999999984
11
99.4659289999999885
21
-96.4324419999999947
0
LINE
8
Edge.Cuts
6
CONTINUOUS
10
99.4659289999999885
20
-96.4324419999999947
11
99.2728099999999927
21
-96.5369529999999969
0
LINE
8
Edge.Cuts
6
CONTINUOUS
10
99.2728099999999927
20
-96.5369529999999969
11
99.0995259999999973
21
-96.6718249999999983
0
LINE
8
Edge.Cuts
6
CONTINUOUS
10
99.0995259999999973
20
-96.6718249999999983
11
98.9508050000000026
21
-96.8333789999999937
0
LINE
8
Edge.Cuts
6
CONTINUOUS
10
98.9508050000000026
20
-96.8333789999999937
11
98.8307039999999972
21
-97.0172079999999966
0
LINE
8
Edge.Cuts
6
CONTINUOUS
10
98.8307039999999972
20
-97.0172079999999966
11
98.7424970000000002
21
-97.2182990000000018
0
LINE
8
Edge.Cuts
6
CONTINUOUS
10
98.7424970000000002
20
-97.2182990000000018
11
98.6885919999999999
21
-97.4311649999999929
0
LINE
8
Edge.Cuts
6
CONTINUOUS
10
98.6885919999999999
20
-97.4311649999999929
11
98.6704589999999939
21
-97.6499999999999915
0
LINE
8
Edge.Cuts
6
CONTINUOUS
10
98.6704589999999939
20
-97.6499999999999915
11
98.6885919999999999
21
-97.86883499999999
0
LINE
8
Edge.Cuts
6
CONTINUOUS
10
98.6885919999999999
20
-97.86883499999999
11
98.7424970000000002
21
-98.0817009999999954
0
LINE
8
Edge.Cuts
6
CONTINUOUS
10
98.7424970000000002
20
-98.0817009999999954
11
98.8307039999999972
21
-98.2827920000000006
0
LINE
8
Edge.Cuts
6
CONTINUOUS
10
98.8307039999999972
20
-98.2827920000000006
11
98.9508050000000026
21
-98.4666209999999893
0
LINE
8
Edge.Cuts
6
CONTINUOUS
10
98.9508050000000026
20
-98.4666209999999893
11
99.0995259999999973
21
-98.6281749999999988
0
LINE
8
Edge.Cuts
6
CONTINUOUS
10
99.0995259999999973
20
-98.6281749999999988
11
99.2728099999999927
21
-98.7630470000000003
0
LINE
8
Edge.Cuts
6
CONTINUOUS
10
99.2728099999999927
20
-98.7630470000000003
11
99.4659289999999885
21
-98.8675580000000025
0
LINE
8
Edge.Cuts
6
CONTINUOUS
10
99.4659289999999885
20
-98.8675580000000025
11
99.673616999999993
21
-98.9388569999999987
0
LINE
8
Edge.Cuts
6
CONTINUOUS
10
99.673616999999993
20
-98.9388569999999987
11
99.8902069999999895
21
-98.9749999999999943
0
LINE
8
Edge.Cuts
6
CONTINUOUS
10
99.8902069999999895
20
-98.9749999999999943
11
100.
21
-98.9749999999999943
0
LINE
8
Edge.Cuts
6
CONTINUOUS
10
100.
20
-98.9749999999999943
11
100.0037669999999963
21
-98.976224000000002
0
LINE
8
Edge.Cuts
6
CONTINUOUS
10
100.0037669999999963
20
-98.976224000000002
11
100.0077249999999935
21
-98.976224000000002
0
LINE
8
Edge.Cuts
6
CONTINUOUS
10
100.0077249999999935
20
-98.976224000000002
11
100.0109279999999927
21
-98.9785499999999985
0
LINE
8
Edge.Cuts
6
CONTINUOUS
10
100.0109279999999927
20
-98.9785499999999985
11
100.014694999999989
21
-98.9797749999999894
0
LINE
8
Edge.Cuts
6
CONTINUOUS
10
100.014694999999989
20
-98.9797749999999894
11
100.0170209999999997
21
-98.9829779999999886
0
LINE
8
Edge.Cuts
6
CONTINUOUS
10
100.0170209999999997
20
-98.9829779999999886
11
100.0202249999999964
21
-98.9853049999999968
0
LINE
8
Edge.Cuts
6
CONTINUOUS
10
100.0202249999999964
20
-98.9853049999999968
11
100.0214489999999898
21
-98.9890709999999956
0
LINE
8
Edge.Cuts
6
CONTINUOUS
10
100.0214489999999898
20
-98.9890709999999956
11
100.023775999999998
21
-98.9922749999999922
0
LINE
8
Edge.Cuts
6
CONTINUOUS
10
100.023775999999998
20
-98.9922749999999922
11
100.023775999999998
21
-98.9962329999999895
0
LINE
8
Edge.Cuts
6
CONTINUOUS
10
100.023775999999998
20
-98.9962329999999895
11
100.0249999999999915
21
-99.
0
LINE
8
Edge.Cuts
6
CONTINUOUS
10
100.0249999999999915
20
-99.
11
100.0094279999999998
21
-99.1779889999999966
0
LINE
8
Edge.Cuts
6
CONTINUOUS
10
100.0094279999999998
20
-99.1779889999999966
11
99.9631849999999957
21
-99.3505710000000022
0
LINE
8
Edge.Cuts
6
CONTINUOUS
10
99.9631849999999957
20
-99.3505710000000022
11
99.887675999999999
21
-99.5124999999999886
0
LINE
8
Edge.Cuts
6
CONTINUOUS
10
99.887675999999999
20
-99.5124999999999886
11
99.7851959999999991
21
-99.6588579999999951
0
LINE
8
Edge.Cuts
6
CONTINUOUS
10
99.7851959999999991
20
-99.6588579999999951
11
99.6588579999999951
21
-99.7851959999999991
0
LINE
8
Edge.Cuts
6
CONTINUOUS
10
99.6588579999999951
20
-99.7851959999999991
11
99.5124999999999886
21
-99.887675999999999
0
LINE
8
Edge.Cuts
6
CONTINUOUS
10
99.5124999999999886
20
-99.887675999999999
11
99.3505710000000022
21
-99.9631849999999957
0
LINE
8
Edge.Cuts
6
CONTINUOUS
10
99.3505710000000022
20
-99.9631849999999957
11
99.1779889999999966
21
-100.0094279999999998
0
LINE
8
Edge.Cuts
6
CONTINUOUS
10
99.1779889999999966
20
-100.0094279999999998
11
99.
21
-100.0249999999999915
0
LINE
8
Edge.Cuts
6
CONTINUOUS
10
99.
20
-100.0249999999999915
11
1.
21
-100.0249999999999915
0
LINE
8
Edge.Cuts
6
CONTINUOUS
10
1.
20
-100.0249999999999915
11
0.8220109999999999
21
-100.0094279999999998
0
LINE
8
Edge.Cuts
6
CONTINUOUS
10
0.8220109999999999
20
-100.0094279999999998
11
0.6494289999999999
21
-99.9631849999999957
0
LINE
8
Edge.Cuts
6
CONTINUOUS
10
0.6494289999999999
20
-99.9631849999999957
11
0.4875
21
-99.887675999999999
0
LINE
8
Edge.Cuts
6
CONTINUOUS
10
0.4875
20
-99.887675999999999
11
0.341142
21
-99.7851959999999991
0
LINE
8
Edge.Cuts
6
CONTINUOUS
10
0.341142
20
-99.7851959999999991
11
0.214804
21
-99.6588579999999951
0
LINE
8
Edge.Cuts
6
CONTINUOUS
10
0.214804
20
-99.6588579999999951
11
0.112324
21
-99.5124999999999886
0
LINE
8
Edge.Cuts
6
CONTINUOUS
10
0.112324
20
-99.5124999999999886
11
0.036815
21
-99.3505710000000022
0
LINE
8
Edge.Cuts
6
CONTINUOUS
10
0.036815
20
-99.3505710000000022
11
-0.009428
21
-99.1779889999999966
0
LINE
8
Edge.Cuts
6
CONTINUOUS
10
-0.009428
20
-99.1779889999999966
11
-0.025
21
-99.
0
LINE
8
Edge.Cuts
6
CONTINUOUS
10
-0.025
20
-99.
11
-0.023776
21
-98.9962329999999895
0
LINE
8
Edge.Cuts
6
CONTINUOUS
10
-0.023776
20
-98.9962329999999895
11
-0.023776
21
-98.9922749999999922
0
LINE
8
Edge.Cuts
6
CONTINUOUS
10
-0.023776
20
-98.9922749999999922
11
-0.02145
21
-98.9890709999999956
0
LINE
8
Edge.Cuts
6
CONTINUOUS
10
-0.02145
20
-98.9890709999999956
11
-0.020225
21
-98.9853049999999968
0
LINE
8
Edge.Cuts
6
CONTINUOUS
10
-0.020225
20
-98.9853049999999968
11
-0.017022
21
-98.9829779999999886
0
LINE
8
Edge.Cuts
6
CONTINUOUS
10
-0.017022
20
-98.9829779999999886
11
-0.014695
21
-98.9797749999999894
0
LINE
8
Edge.Cuts
6
CONTINUOUS
10
-0.014695
20
-98.9797749999999894
11
-0.010929
21
-98.9785499999999985
0
LINE
8
Edge.Cuts
6
CONTINUOUS
10
-0.010929
20
-98.9785499999999985
11
-0.007725
21
-98.976224000000002
0
LINE
8
Edge.Cuts
6
CONTINUOUS
10
-0.007725
20
-98.976224000000002
11
-0.003767
21
-98.976224000000002
0
LINE
8
Edge.Cuts
6
CONTINUOUS
10
-0.003767
20
-98.976224000000002
11
0.
21
-98.9749999999999943
0
LINE
8
Edge.Cuts
6
CONTINUOUS
10
0.
20
-98.9749999999999943
11
0.109793
21
-98.9749999999999943
0
LINE
8
Edge.Cuts
6
CONTINUOUS
10
0.109793
20
-98.9749999999999943
11
0.326383
21
-98.9388569999999987
0
LINE
8
Edge.Cuts
6
CONTINUOUS
10
0.326383
20
-98.9388569999999987
11
0.534071
21
-98.8675580000000025
0
LINE
8
Edge.Cuts
6
CONTINUOUS
10
0.534071
20
-98.8675580000000025
11
0.72719
21
-98.7630470000000003
0
LINE
8
Edge.Cuts
6
CONTINUOUS
10
0.72719
20
-98.7630470000000003
11
0.900474
21
-98.6281749999999988
0
LINE
8
Edge.Cuts
6
CONTINUOUS
10
0.900474
20
-98.6281749999999988
11
1.0491949999999999
21
-98.4666209999999893
0
LINE
8
Edge.Cuts
6
CONTINUOUS
10
1.0491949999999999
20
-98.4666209999999893
11
1.1692959999999999
21
-98.2827920000000006
0
LINE
8
Edge.Cuts
6
CONTINUOUS
10
1.1692959999999999
20
-98.2827920000000006
11
1.257503
21
-98.0817009999999954
0
LINE
8
Edge.Cuts
6
CONTINUOUS
10
1.257503
20
-98.0817009999999954
11
1.3114079999999999
21
-97.86883499999999
0
LINE
8
Edge.Cuts
6
CONTINUOUS
10
1.3114079999999999
20
-97.86883499999999
11
1.3295409999999999
21
-97.6499999999999915
0
LINE
8
Edge.Cuts
6
CONTINUOUS
10
1.3295409999999999
20
-97.6499999999999915
11
1.3114079999999999
21
-97.4311649999999929
0
LINE
8
Edge.Cuts
6
CONTINUOUS
10
1.3114079999999999
20
-97.4311649999999929
11
1.257503
21
-97.2182990000000018
0
LINE
8
Edge.Cuts
6
CONTINUOUS
10
1.257503
20
-97.2182990000000018
11
1.1692959999999999
21
-97.0172079999999966
0
LINE
8
Edge.Cuts
6
CONTINUOUS
10
1.1692959999999999
20
-97.0172079999999966
11
1.0491949999999999
21
-96.8333789999999937
0
LINE
8
Edge.Cuts
6
CONTINUOUS
10
1.0491949999999999
20
-96.8333789999999937
11
0.900474
21
-96.6718249999999983
0
LINE
8
Edge.Cuts
6
CONTINUOUS
10
0.900474
20
-96.6718249999999983
11
0.72719
21
-96.5369529999999969
0
LINE
8
Edge.Cuts
6
CONTINUOUS
10
0.72719
20
-96.5369529999999969
11
0.534071
21
-96.4324419999999947
0
LINE
8
Edge.Cuts
6
CONTINUOUS
10
0.534071
20
-96.4324419999999947
11
0.326383
21
-96.3611429999999984
0
LINE
8
Edge.Cuts
6
CONTINUOUS
10
0.326383
20
-96.3611429999999984
11
0.109793
21
-96.3249999999999886
0
LINE
8
Edge.Cuts
6
CONTINUOUS
10
0.109793
20
-96.3249999999999886
11
0.
21
-96.3249999999999886
0
LINE
8
Edge.Cuts
6
CONTINUOUS
10
0.
20
-96.3249999999999886
11
-0.005856
21
-96.32309699999999
0
LINE
8
Edge.Cuts
6
CONTINUOUS
10
-0.005856
20
-96.32309699999999
11
-0.009567
21
-96.32309699999999
0
LINE
8
Edge.Cuts
6
CONTINUOUS
10
-0.009567
20
-96.32309699999999
11
-0.011354
21
-96.3213099999999969
0
LINE
8
Edge.Cuts
6
CONTINUOUS
10
-0.011354
20
-96.3213099999999969
11
-0.014695
21
-96.3202249999999935
0
LINE
8
Edge.Cuts
6
CONTINUOUS
10
-0.014695
20
-96.3202249999999935
11
-0.020688
21
-96.3119760000000014
0
LINE
8
Edge.Cuts
6
CONTINUOUS
10
-0.020688
20
-96.3119760000000014
11
-0.023097
21
-96.3095670000000013
0
LINE
8
Edge.Cuts
6
CONTINUOUS
10
-0.023097
20
-96.3095670000000013
11
-0.023346
21
-96.3083170000000024
0
LINE
8
Edge.Cuts
6
CONTINUOUS
10
-0.023346
20
-96.3083170000000024
11
-0.023776
21
-96.3077249999999907
0
LINE
8
Edge.Cuts
6
CONTINUOUS
10
-0.023776
20
-96.3077249999999907
11
-0.023776
21
-96.3061529999999948
0
LINE
8
Edge.Cuts
6
CONTINUOUS
10
-0.023776
20
-96.3061529999999948
11
-0.025
21
-96.2999999999999972
0
LINE
8
Edge.Cuts
6
CONTINUOUS
10
-0.025
20
-96.2999999999999972
11
-0.025
21
-3.6999999999999997
0
LINE
8
Edge.Cuts
6
CONTINUOUS
10
-0.025
20
-3.6999999999999997
11
-0.023776
21
-3.6938459999999997
0
LINE
8
Edge.Cuts
6
CONTINUOUS
10
-0.023776
20
-3.6938459999999997
11
-0.023776
21
-3.692275
0
LINE
8
Edge.Cuts
6
CONTINUOUS
10
-0.023776
20
-3.692275
11
-0.023346
21
-3.6916819999999997
0
LINE
8
Edge.Cuts
6
CONTINUOUS
10
-0.023346
20
-3.6916819999999997
11
-0.023097
21
-3.6904329999999996
0
LINE
8
Edge.Cuts
6
CONTINUOUS
10
-0.023097
20
-3.6904329999999996
11
-0.020688
21
-3.6880229999999998
0
LINE
8
Edge.Cuts
6
CONTINUOUS
10
-0.020688
20
-3.6880229999999998
11
-0.014695
21
-3.6797749999999998
0
LINE
8
Edge.Cuts
6
CONTINUOUS
10
-0.014695
20
-3.6797749999999998
11
-0.011354
21
-3.6786889999999999
0
LINE
8
Edge.Cuts
6
CONTINUOUS
10
-0.011354
20
-3.6786889999999999
11
-0.009567
21
-3.6769029999999998
0
LINE
8
Edge.Cuts
6
CONTINUOUS
10
-0.009567
20
-3.6769029999999998
11
-0.005856
21
-3.6769029999999998
0
LINE
8
Edge.Cuts
6
CONTINUOUS
10
-0.005856
20
-3.6769029999999998
11
0.
21
-3.6749999999999998
0
LINE
8
Edge.Cuts
6
CONTINUOUS
10
0.
20
-3.6749999999999998
11
0.109793
21
-3.6749999999999998
0
LINE
8
Edge.Cuts
6
CONTINUOUS
10
0.109793
20
-3.6749999999999998
11
0.326383
21
-3.6388569999999998
0
LINE
8
Edge.Cuts
6
CONTINUOUS
10
0.326383
20
-3.6388569999999998
11
0.534071
21
-3.567558
0
LINE
8
Edge.Cuts
6
CONTINUOUS
10
0.534071
20
-3.567558
11
0.72719
21
-3.463047
0
LINE
8
Edge.Cuts
6
CONTINUOUS
10
0.72719
20
-3.463047
11
0.900474
21
-3.3281749999999999
0
LINE
8
Edge.Cuts
6
CONTINUOUS
10
0.900474
20
-3.3281749999999999
11
1.0491949999999999
21
-3.1666209999999997
0
LINE
8
Edge.Cuts
6
CONTINUOUS
10
1.0491949999999999
20
-3.1666209999999997
11
1.1692959999999999
21
-2.9827919999999999
0
LINE
8
Edge.Cuts
6
CONTINUOUS
10
1.1692959999999999
20
-2.9827919999999999
11
1.257503
21
-2.781701
0
LINE
8
Edge.Cuts
6
CONTINUOUS
10
1.257503
20
-2.781701
11
1.3114079999999999
21
-2.568835
0
LINE
8
Edge.Cuts
6
CONTINUOUS
10
1.3114079999999999
20
-2.568835
11
1.3295409999999999
21
-2.3500000000000001
0
LINE
8
Edge.Cuts
6
CONTINUOUS
10
1.3295409999999999
20
-2.3500000000000001
11
1.3114079999999999
21
-2.1311649999999998
0
LINE
8
Edge.Cuts
6
CONTINUOUS
10
1.3114079999999999
20
-2.1311649999999998
11
1.257503
21
-1.918299
0
LINE
8
Edge.Cuts
6
CONTINUOUS
10
1.257503
20
-1.918299
11
1.1692959999999999
21
-1.7172079999999998
0
LINE
8
Edge.Cuts
6
CONTINUOUS
10
1.1692959999999999
20
-1.7172079999999998
11
1.0491949999999999
21
-1.5333789999999998
0
LINE
8
Edge.Cuts
6
CONTINUOUS
10
1.0491949999999999
20
-1.5333789999999998
11
0.900474
21
-1.3718249999999999
0
LINE
8
Edge.Cuts
6
CONTINUOUS
10
0.900474
20
-1.3718249999999999
11
0.72719
21
-1.236953
0
LINE
8
Edge.Cuts
6
CONTINUOUS
10
0.72719
20
-1.236953
11
0.534071
21
-1.1324419999999999
0
LINE
8
Edge.Cuts
6
CONTINUOUS
10
0.534071
20
-1.1324419999999999
11
0.326383
21
-1.0611429999999999
0
LINE
8
Edge.Cuts
6
CONTINUOUS
10
0.326383
20
-1.0611429999999999
11
0.109793
21
-1.0249999999999999
0
LINE
8
Edge.Cuts
6
CONTINUOUS
10
0.109793
20
-1.0249999999999999
11
0.
21
-1.0249999999999999
0
LINE
8
Edge.Cuts
6
CONTINUOUS
10
0.
20
-1.0249999999999999
11
-0.003767
21
-1.023776
0
LINE
8
Edge.Cuts
6
CONTINUOUS
10
-0.003767
20
-1.023776
11
-0.007725
21
-1.023776
0
LINE
8
Edge.Cuts
6
CONTINUOUS
10
-0.007725
20
-1.023776
11
-0.010929
21
-1.0214490000000001
0
LINE
8
Edge.Cuts
6
CONTINUOUS
10
-0.010929
20
-1.0214490000000001
11
-0.014695
21
-1.0202249999999999
0
LINE
8
Edge.Cuts
6
CONTINUOUS
10
-0.014695
20
-1.0202249999999999
11
-0.017022
21
-1.017021
0
LINE
8
Edge.Cuts
6
CONTINUOUS
10
-0.017022
20
-1.017021
11
-0.020225
21
-1.0146949999999999
0
LINE
8
Edge.Cuts
6
CONTINUOUS
10
-0.020225
20
-1.0146949999999999
11
-0.02145
21
-1.010928
0
LINE
8
Edge.Cuts
6
CONTINUOUS
10
-0.02145
20
-1.010928
11
-0.023776
21
-1.007725
0
LINE
8
Edge.Cuts
6
CONTINUOUS
10
-0.023776
20
-1.007725
11
-0.023776
21
-1.0037659999999999
0
LINE
8
Edge.Cuts
6
CONTINUOUS
10
-0.023776
20
-1.0037659999999999
11
-0.025
21
-1.
0
LINE
8
Edge.Cuts
6
CONTINUOUS
10
-0.025
20
-1.
11
-0.009428
21
-0.8220109999999999
0
LINE
8
Edge.Cuts
6
CONTINUOUS
10
-0.009428
20
-0.8220109999999999
11
0.036815
21
-0.6494289999999999
0
LINE
8
Edge.Cuts
6
CONTINUOUS
10
0.036815
20
-0.6494289999999999
11
0.112324
21
-0.4875
0
LINE
8
Edge.Cuts
6
CONTINUOUS
10
0.112324
20
-0.4875
11
0.214804
21
-0.341142
0
LINE
8
Edge.Cuts
6
CONTINUOUS
10
0.214804
20
-0.341142
11
0.341142
21
-0.214804
0
LINE
8
Edge.Cuts
6
CONTINUOUS
10
0.341142
20
-0.214804
11
0.4875
21
-0.112324
0
LINE
8
Edge.Cuts
6
CONTINUOUS
10
0.4875
20
-0.112324
11
0.6494289999999999
21
-0.036815
0
LINE
8
Edge.Cuts
6
CONTINUOUS
10
0.6494289999999999
20
-0.036815
11
0.8220109999999999
21
0.009428
0
LINE
8
Edge.Cuts
6
CONTINUOUS
10
0.8220109999999999
20
0.009428
11
1.
21
0.025
0
LINE
8
Edge.Cuts
6
CONTINUOUS
10
1.
20
0.025
11
99.
21
0.025
0
LINE
8
Edge.Cuts
6
CONTINUOUS
10
1.
20
-0.025
11
0.9146989999999999
21
-0.025
0
LINE
8
Edge.Cuts
6
CONTINUOUS
10
0.9146989999999999
20
-0.025
11
0.746688
21
-0.054625
0
LINE
8
Edge.Cuts
6
CONTINUOUS
10
0.746688
20
-0.054625
11
0.5863729999999999
21
-0.112975
0
LINE
8
Edge.Cuts
6
CONTINUOUS
10
0.5863729999999999
20
-0.112975
11
0.438627
21
-0.198276
0
LINE
8
Edge.Cuts
6
CONTINUOUS
10
0.438627
20
-0.198276
11
0.307937
21
-0.307937
0
LINE
8
Edge.Cuts
6
CONTINUOUS
10
0.307937
20
-0.307937
11
0.198276
21
-0.438627
0
LINE
8
Edge.Cuts
6
CONTINUOUS
10
0.198276
20
-0.438627
11
0.112975
21
-0.5863729999999999
0
LINE
8
Edge.Cuts
6
CONTINUOUS
10
0.112975
20
-0.5863729999999999
11
0.054625
21
-0.746688
0
LINE
8
Edge.Cuts
6
CONTINUOUS
10
0.054625
20
-0.746688
11
0.025
21
-0.9146989999999999
0
LINE
8
Edge.Cuts
6
CONTINUOUS
10
0.025
20
-0.9146989999999999
11
0.025
21
-0.9770709999999999
0
LINE
8
Edge.Cuts
6
CONTINUOUS
10
0.025
20
-0.9770709999999999
11
0.226318
21
-0.993753
0
LINE
8
Edge.Cuts
6
CONTINUOUS
10
0.226318
20
-0.993753
11
0.446462
21
-1.049501
0
LINE
8
Edge.Cuts
6
CONTINUOUS
10
0.446462
20
-1.049501
11
0.654428
21
-1.1407239999999998
0
LINE
8
Edge.Cuts
6
CONTINUOUS
10
0.654428
20
-1.1407239999999998
11
0.844542
21
-1.2649319999999999
0
LINE
8
Edge.Cuts
6
CONTINUOUS
10
0.844542
20
-1.2649319999999999
11
1.01162
21
-1.4187379999999998
0
LINE
8
Edge.Cuts
6
CONTINUOUS
10
1.01162
20
-1.4187379999999998
11
1.1511039999999999
21
-1.5979459999999999
0
LINE
8
Edge.Cuts
6
CONTINUOUS
10
1.1511039999999999
20
-1.5979459999999999
11
1.259188
21
-1.797669
0
LINE
8
Edge.Cuts
6
CONTINUOUS
10
1.259188
20
-1.797669
11
1.3329249999999999
21
-2.0124569999999999
0
LINE
8
Edge.Cuts
6
CONTINUOUS
10
1.3329249999999999
20
-2.0124569999999999
11
1.370304
21
-2.236453
0
LINE
8
Edge.Cuts
6
CONTINUOUS
10
1.370304
20
-2.236453
11
1.370304
21
-2.4635469999999997
0
LINE
8
Edge.Cuts
6
CONTINUOUS
10
1.370304
20
-2.4635469999999997
11
1.3329249999999999
21
-2.6875429999999998
0
LINE
8
Edge.Cuts
6
CONTINUOUS
10
1.3329249999999999
20
-2.6875429999999998
11
1.259188
21
-2.9023309999999998
0
LINE
8
Edge.Cuts
6
CONTINUOUS
10
1.259188
20
-2.9023309999999998
11
1.1511039999999999
21
-3.1020539999999999
0
LINE
8
Edge.Cuts
6
CONTINUOUS
10
1.1511039999999999
20
-3.1020539999999999
11
1.01162
21
-3.2812619999999999
0
LINE
8
Edge.Cuts
6
CONTINUOUS
10
1.01162
20
-3.2812619999999999
11
0.844542
21
-3.4350679999999998
0
LINE
8
Edge.Cuts
6
CONTINUOUS
10
0.844542
20
-3.4350679999999998
11
0.654428
21
-3.5592759999999997
0
LINE
8
Edge.Cuts
6
CONTINUOUS
10
0.654428
20
-3.5592759999999997
11
0.446462
21
-3.6504989999999999
0
LINE
8
Edge.Cuts
6
CONTINUOUS
10
0.446462
20
-3.6504989999999999
11
0.226318
21
-3.7062469999999998
0
LINE
8
Edge.Cuts
6
CONTINUOUS
10
0.226318
20
-3.7062469999999998
11
0.025
21
-3.722928
0
LINE
8
Edge.Cuts
6
CONTINUOUS
10
0.025
20
-3.722928
11
0.025
21
-96.2770709999999923
0
LINE
8
Edge.Cuts
6
CONTINUOUS
10
0.025
20
-96.2770709999999923
11
0.226318
21
-96.2937529999999953
0
LINE
8
Edge.Cuts
6
CONTINUOUS
10
0.226318
20
-96.2937529999999953
11
0.446462
21
-96.3495009999999894
0
LINE
8
Edge.Cuts
6
CONTINUOUS
10
0.446462
20
-96.3495009999999894
11
0.654428
21
-96.4407239999999888
0
LINE
8
Edge.Cuts
6
CONTINUOUS
10
0.654428
20
-96.4407239999999888
11
0.844542
21
-96.5649319999999989
0
LINE
8
Edge.Cuts
6
CONTINUOUS
10
0.844542
20
-96.5649319999999989
11
1.01162
21
-96.7187380000000019
0
LINE
8
Edge.Cuts
6
CONTINUOUS
10
1.01162
20
-96.7187380000000019
11
1.1511039999999999
21
-96.8979459999999904
0
LINE
8
Edge.Cuts
6
CONTINUOUS
10
1.1511039999999999
20
-96.8979459999999904
11
1.259188
21
-97.0976689999999962
0
LINE
8
Edge.Cuts
6
CONTINUOUS
10
1.259188
20
-97.0976689999999962
11
1.3329249999999999
21
-97.3124569999999949
0
LINE
8
Edge.Cuts
6
CONTINUOUS
10
1.3329249999999999
20
-97.3124569999999949
11
1.370304
21
-97.5364529999999945
0
LINE
8
Edge.Cuts
6
CONTINUOUS
10
1.370304
20
-97.5364529999999945
11
1.370304
21
-97.7635470000000026
0
LINE
8
Edge.Cuts
6
CONTINUOUS
10
1.370304
20
-97.7635470000000026
11
1.3329249999999999
21
-97.9875430000000023
0
LINE
8
Edge.Cuts
6
CONTINUOUS
10
1.3329249999999999
20
-97.9875430000000023
11
1.259188
21
-98.2023310000000009
0
LINE
8
Edge.Cuts
6
CONTINUOUS
10
1.259188
20
-98.2023310000000009
11
1.1511039999999999
21
-98.4020539999999926
0
LINE
8
Edge.Cuts
6
CONTINUOUS
10
1.1511039999999999
20
-98.4020539999999926
11
1.01162
21
-98.5812619999999953
0
LINE
8
Edge.Cuts
6
CONTINUOUS
10
1.01162
20
-98.5812619999999953
11
0.844542
21
-98.7350679999999983
0
LINE
8
Edge.Cuts
6
CONTINUOUS
10
0.844542
20
-98.7350679999999983
11
0.654428
21
-98.8592759999999942
0
LINE
8
Edge.Cuts
6
CONTINUOUS
10
0.654428
20
-98.8592759999999942
11
0.446462
21
-98.9504989999999935
0
LINE
8
Edge.Cuts
6
CONTINUOUS
10
0.446462
20
-98.9504989999999935
11
0.226318
21
-99.0062470000000019
0
LINE
8
Edge.Cuts
6
CONTINUOUS
10
0.226318
20
-99.0062470000000019
11
0.025
21
-99.0229279999999932
0
LINE
8
Edge.Cuts
6
CONTINUOUS
10
0.025
20
-99.0229279999999932
11
0.025
21
-99.0853010000000012
0
LINE
8
Edge.Cuts
6
CONTINUOUS
10
0.025
20
-99.0853010000000012
11
0.054625
21
-99.253311999999994
0
LINE
8
Edge.Cuts
6
CONTINUOUS
10
0.054625
20
-99.253311999999994
11
0.112975
21
-99.4136269999999911
0
LINE
8
Edge.Cuts
6
CONTINUOUS
10
0.112975
20
-99.4136269999999911
11
0.198276
21
-99.561372999999989
0
LINE
8
Edge.Cuts
6
CONTINUOUS
10
0.198276
20
-99.561372999999989
11
0.307937
21
-99.6920629999999903
0
LINE
8
Edge.Cuts
6
CONTINUOUS
10
0.307937
20
-99.6920629999999903
11
0.438627
21
-99.801723999999993
0
LINE
8
Edge.Cuts
6
CONTINUOUS
10
0.438627
20
-99.801723999999993
11
0.5863729999999999
21
-99.8870249999999942
0
LINE
8
Edge.Cuts
6
CONTINUOUS
10
0.5863729999999999
20
-99.8870249999999942
11
0.746688
21
-99.9453749999999985
0
LINE
8
Edge.Cuts
6
CONTINUOUS
10
0.746688
20
-99.9453749999999985
11
0.9146989999999999
21
-99.9749999999999943
0
LINE
8
Edge.Cuts
6
CONTINUOUS
10
0.9146989999999999
20
-99.9749999999999943
11
1.
21
-99.9749999999999943
0
LINE
8
Edge.Cuts
6
CONTINUOUS
10
1.
20
-99.9749999999999943
11
99.
21
-99.9749999999999943
0
LINE
8
Edge.Cuts
6
CONTINUOUS
10
99.
20
-99.9749999999999943
11
99.0853010000000012
21
-99.9749999999999943
0
LINE
8
Edge.Cuts
6
CONTINUOUS
10
99.0853010000000012
20
-99.9749999999999943
11
99.253311999999994
21
-99.9453749999999985
0
LINE
8
Edge.Cuts
6
CONTINUOUS
10
99.253311999999994
20
-99.9453749999999985
11
99.4136269999999911
21
-99.8870249999999942
0
LINE
8
Edge.Cuts
6
CONTINUOUS
10
99.4136269999999911
20
-99.8870249999999942
11
99.561372999999989
21
-99.801723999999993
0
LINE
8
Edge.Cuts
6
CONTINUOUS
10
99.561372999999989
20
-99.801723999999993
11
99.6920629999999903
21
-99.6920629999999903
0
LINE
8
Edge.Cuts
6
CONTINUOUS
10
99.6920629999999903
20
-99.6920629999999903
11
99.801723999999993
21
-99.561372999999989
0
LINE
8
Edge.Cuts
6
CONTINUOUS
10
99.801723999999993
20
-99.561372999999989
11
99.8870249999999942
21
-99.4136269999999911
0
LINE
8
Edge.Cuts
6
CONTINUOUS
10
99.8870249999999942
20
-99.4136269999999911
11
99.9453749999999985
21
-99.253311999999994
0
LINE
8
Edge.Cuts
6
CONTINUOUS
10
99.9453749999999985
20
-99.253311999999994
11
99.9749999999999943
21
-99.0853010000000012
0
LINE
8
Edge.Cuts
6
CONTINUOUS
10
99.9749999999999943
20
-99.0853010000000012
11
99.9749999999999943
21
-99.0229279999999932
0
LINE
8
Edge.Cuts
6
CONTINUOUS
10
99.9749999999999943
20
-99.0229279999999932
11
99.7736819999999938
21
-99.0062470000000019
0
LINE
8
Edge.Cuts
6
CONTINUOUS
10
99.7736819999999938
20
-99.0062470000000019
11
99.553537999999989
21
-98.9504989999999935
0
LINE
8
Edge.Cuts
6
CONTINUOUS
10
99.553537999999989
20
-98.9504989999999935
11
99.34557199999999
21
-98.8592759999999942
0
LINE
8
Edge.Cuts
6
CONTINUOUS
10
99.34557199999999
20
-98.8592759999999942
11
99.1554579999999959
21
-98.7350679999999983
0
LINE
8
Edge.Cuts
6
CONTINUOUS
10
99.1554579999999959
20
-98.7350679999999983
11
98.9883799999999923
21
-98.5812619999999953
0
LINE
8
Edge.Cuts
6
CONTINUOUS
10
98.9883799999999923
20
-98.5812619999999953
11
98.8488959999999963
21
-98.4020539999999926
0
LINE
8
Edge.Cuts
6
CONTINUOUS
10
98.8488959999999963
20
-98.4020539999999926
11
98.7408119999999911
21
-98.2023310000000009
0
LINE
8
Edge.Cuts
6
CONTINUOUS
10
98.7408119999999911
20
-98.2023310000000009
11
98.667074999999997
21
-97.9875430000000023
0
LINE
8
Edge.Cuts
6
CONTINUOUS
10
98.667074999999997
20
-97.9875430000000023
11
98.6296959999999956
21
-97.7635470000000026
0
LINE
8
Edge.Cuts
6
CONTINUOUS
10
98.6296959999999956
20
-97.7635470000000026
11
98.6296959999999956
21
-97.5364529999999945
0
LINE
8
Edge.Cuts
6
CONTINUOUS
10
98.6296959999999956
20
-97.5364529999999945
11
98.667074999999997
21
-97.3124569999999949
0
LINE
8
Edge.Cuts
6
CONTINUOUS
10
98.667074999999997
20
-97.3124569999999949
11
98.7408119999999911
21
-97.0976689999999962
0
LINE
8
Edge.Cuts
6
CONTINUOUS
10
98.7408119999999911
20
-97.0976689999999962
11
98.8488959999999963
21
-96.8979459999999904
0
LINE
8
Edge.Cuts
6
CONTINUOUS
10
98.8488959999999963
20
-96.8979459999999904
11
98.9883799999999923
21
-96.7187380000000019
0
LINE
8
Edge.Cuts
6
CONTINUOUS
10
98.9883799999999923
20
-96.7187380000000019
11
99.1554579999999959
21
-96.5649319999999989
0
LINE
8
Edge.Cuts
6
CONTINUOUS
10
99.1554579999999959
20
-96.5649319999999989
11
99.34557199999999
21
-96.4407239999999888
0
LINE
8
Edge.Cuts
6
CONTINUOUS
10
99.34557199999999
20
-96.4407239999999888
11
99.553537999999989
21
-96.3495009999999894
0
LINE
8
Edge.Cuts
6
CONTINUOUS
10
99.553537999999989
20
-96.3495009999999894
11
99.7736819999999938
21
-96.2937529999999953
0
LINE
8
Edge.Cuts
6
CONTINUOUS
10
99.7736819999999938
20
-96.2937529999999953
11
99.9749999999999943
21
-96.2770709999999923
0
LINE
8
Edge.Cuts
6
CONTINUOUS
10
99.9749999999999943
20
-96.2770709999999923
11
99.9749999999999943
21
-3.722928
0
LINE
8
Edge.Cuts
6
CONTINUOUS
10
99.9749999999999943
20
-3.722928
11
99.7736819999999938
21
-3.7062469999999998
0
LINE
8
Edge.Cuts
6
CONTINUOUS
10
99.7736819999999938
20
-3.7062469999999998
11
99.553537999999989
21
-3.6504989999999999
0
LINE
8
Edge.Cuts
6
CONTINUOUS
10
99.553537999999989
20
-3.6504989999999999
11
99.34557199999999
21
-3.5592759999999997
0
LINE
8
Edge.Cuts
6
CONTINUOUS
10
99.34557199999999
20
-3.5592759999999997
11
99.1554579999999959
21
-3.4350679999999998
0
LINE
8
Edge.Cuts
6
CONTINUOUS
10
99.1554579999999959
20
-3.4350679999999998
11
98.9883799999999923
21
-3.2812619999999999
0
LINE
8
Edge.Cuts
6
CONTINUOUS
10
98.9883799999999923
20
-3.2812619999999999
11
98.8488959999999963
21
-3.1020539999999999
0
LINE
8
Edge.Cuts
6
CONTINUOUS
10
98.8488959999999963
20
-3.1020539999999999
11
98.7408119999999911
21
-2.9023309999999998
0
LINE
8
Edge.Cuts
6
CONTINUOUS
10
98.7408119999999911
20
-2.9023309999999998
11
98.667074999999997
21
-2.6875429999999998
0
LINE
8
Edge.Cuts
6
CONTINUOUS
10
98.667074999999997
20
-2.6875429999999998
11
98.6296959999999956
21
-2.4635469999999997
0
LINE
8
Edge.Cuts
6
CONTINUOUS
10
98.6296959999999956
20
-2.4635469999999997
11
98.6296959999999956
21
-2.236453
0
LINE
8
Edge.Cuts
6
CONTINUOUS
10
98.6296959999999956
20
-2.236453
11
98.667074999999997
21
-2.0124569999999999
0
LINE
8
Edge.Cuts
6
CONTINUOUS
10
98.667074999999997
20
-2.0124569999999999
11
98.7408119999999911
21
-1.797669
0
LINE
8
Edge.Cuts
6
CONTINUOUS
10
98.7408119999999911
20
-1.797669
11
98.8488959999999963
21
-1.5979459999999999
0
LINE
8
Edge.Cuts
6
CONTINUOUS
10
98.8488959999999963
20
-1.5979459999999999
11
98.9883799999999923
21
-1.4187379999999998
0
LINE
8
Edge.Cuts
6
CONTINUOUS
10
98.9883799999999923
20
-1.4187379999999998
11
99.1554579999999959
21
-1.2649319999999999
0
LINE
8
Edge.Cuts
6
CONTINUOUS
10
99.1554579999999959
20
-1.2649319999999999
11
99.34557199999999
21
-1.1407239999999998
0
LINE
8
Edge.Cuts
6
CONTINUOUS
10
99.34557199999999
20
-1.1407239999999998
11
99.553537999999989
21
-1.049501
0
LINE
8
Edge.Cuts
6
CONTINUOUS
10
99.553537999999989
20
-1.049501
11
99.7736819999999938
21
-0.993753
0
LINE
8
Edge.Cuts
6
CONTINUOUS
10
99.7736819999999938
20
-0.993753
11
99.9749999999999943
21
-0.9770709999999999
0
LINE
8
Edge.Cuts
6
CONTINUOUS
10
99.9749999999999943
20
-0.9770709999999999
11
99.9749999999999943
21
-0.9146989999999999
0
LINE
8
Edge.Cuts
6
CONTINUOUS
10
99.9749999999999943
20
-0.9146989999999999
11
99.9453749999999985
21
-0.746688
0
LINE
8
Edge.Cuts
6
CONTINUOUS
10
99.9453749999999985
20
-0.746688
11
99.8870249999999942
21
-0.5863729999999999
0
LINE
8
Edge.Cuts
6
CONTINUOUS
10
99.8870249999999942
20
-0.5863729999999999
11
99.801723999999993
21
-0.438627
0
LINE
8
Edge.Cuts
6
CONTINUOUS
10
99.801723999999993
20
-0.438627
11
99.6920629999999903
21
-0.307937
0
LINE
8
Edge.Cuts
6
CONTINUOUS
10
99.6920629999999903
20
-0.307937
11
99.561372999999989
21
-0.198276
0
LINE
8
Edge.Cuts
6
CONTINUOUS
10
99.561372999999989
20
-0.198276
11
99.4136269999999911
21
-0.112975
0
LINE
8
Edge.Cuts
6
CONTINUOUS
10
99.4136269999999911
20
-0.112975
11
99.253311999999994
21
-0.054625
0
LINE
8
Edge.Cuts
6
CONTINUOUS
10
99.253311999999994
20
-0.054625
11
99.0853010000000012
21
-0.025
0
LINE
8
Edge.Cuts
6
CONTINUOUS
10
99.0853010000000012
20
-0.025
11
99.
21
-0.025
0
LINE
8
Edge.Cuts
6
CONTINUOUS
10
99.
20
-0.025
11
1.
21
-0.025
  0
ENDSEC
  0
EOF
